<?xml version="1.0" encoding="utf-8"?>
<!-- Generator: Adobe Illustrator 15.0.0, SVG Export Plug-In . SVG Version: 6.00 Build 0)  -->
<!DOCTYPE svg PUBLIC "-//W3C//DTD SVG 1.1//EN" "http://www.w3.org/Graphics/SVG/1.1/DTD/svg11.dtd" [
	<!ENTITY ns_flows "http://ns.adobe.com/Flows/1.0/">
	<!ENTITY ns_extend "http://ns.adobe.com/Extensibility/1.0/">
	<!ENTITY ns_ai "http://ns.adobe.com/AdobeIllustrator/10.0/">
	<!ENTITY ns_graphs "http://ns.adobe.com/Graphs/1.0/">
]>

<svg version="1.1" id="Layer_1" xmlns:x="&ns_extend;" xmlns:i="&ns_ai;" xmlns:graph="&ns_graphs;"
	 xmlns="http://www.w3.org/2000/svg" xmlns:xlink="http://www.w3.org/1999/xlink" xmlns:a="http://ns.adobe.com/AdobeSVGViewerExtensions/3.0/"
	 x="0px" y="0px" width="225.6px" height="161px" viewBox="0 0 225.6 161" enable-background="new 0 0 225.6 161"
	 xml:space="preserve">

<g>
	<path fill="#F47D20" d="M123.9,142h-42c1.7,12.6-10.9,18.8-10.9,18.8h63.2C123.2,156.7,123.9,142,123.9,142z"/>
	<g>
		<circle fill="none" cx="102.6" cy="124.6" r="5.8"/>
		<circle fill="none" cx="102.6" cy="124.6" r="5.8"/>
		<path  fill="#F47D20" d="M195.5,0H9.7C4.4,0,0,4.4,0,9.7v118.6c0,5.3,4.4,9.7,9.7,9.7h164.5v-25.3H22.3c-5.3,0-9.7-4.4-9.7-9.7
			V23.7c0-5.3,4.4-9.7,9.7-9.7h160.5c5.3,0,9.7,4.4,9.7,9.7v44.5h12.6V9.7C205.2,4.4,200.8,0,195.5,0z M102.6,118.8
			c3.2,0,5.8,2.6,5.8,5.8c0,3.2-2.6,5.8-5.8,5.8c-3.2,0-5.8-2.6-5.8-5.8C96.8,121.4,99.4,118.8,102.6,118.8z"/>
	</g>
	<path id="path-1" fill="#F47D20" d="M217.9,70.9h-12.7h-12.6h-7.9c-4.3,0-7.8,3.6-7.8,8v33.8v25.3V153c0,4.4,3.5,8,7.8,8h33.3
		c4.3,0,7.8-3.6,7.8-8V78.9C225.6,74.5,222.2,70.9,217.9,70.9z M196.3,78.7h8.9h1v2h-1h-8.9V78.7z M201.2,157.2
		c-2.2,0-3.9-1.8-3.9-3.9s1.8-3.9,3.9-3.9s3.9,1.8,3.9,3.9S203.4,157.2,201.2,157.2z M219.8,146.4h-37.2v-8.5v-25.3V87.8h9.9h12.6
		h14.7V146.4z"/>
</g>
</svg>
