<?xml version="1.0" encoding="utf-8"?>
<!-- Generator: Adobe Illustrator 15.0.0, SVG Export Plug-In . SVG Version: 6.00 Build 0)  -->
<!DOCTYPE svg PUBLIC "-//W3C//DTD SVG 1.1//EN" "http://www.w3.org/Graphics/SVG/1.1/DTD/svg11.dtd" [
	<!ENTITY ns_flows "http://ns.adobe.com/Flows/1.0/">
	<!ENTITY ns_extend "http://ns.adobe.com/Extensibility/1.0/">
	<!ENTITY ns_ai "http://ns.adobe.com/AdobeIllustrator/10.0/">
	<!ENTITY ns_graphs "http://ns.adobe.com/Graphs/1.0/">
]>
<svg version="1.1" id="Layer_1" xmlns:x="&ns_extend;" xmlns:i="&ns_ai;" xmlns:graph="&ns_graphs;"
	 xmlns="http://www.w3.org/2000/svg" xmlns:xlink="http://www.w3.org/1999/xlink" xmlns:a="http://ns.adobe.com/AdobeSVGViewerExtensions/3.0/"
	 x="0px" y="0px" width="352.2px" height="250.4px" viewBox="0 0 352.2 250.4" enable-background="new 0 0 352.2 250.4"
	 xml:space="preserve">
<g>
	<g>
		<path fill="#F47D20" d="M58,22.8c-5.9,0-10.8,4.8-10.8,10.8v131.8c0,5.9,4.8,10.8,10.8,10.8h206.6c5.9,0,10.8-4.8,10.8-10.8V33.5
			c0-5.9-4.8-10.8-10.8-10.8H58z M261.3,137.3c0,5.9-4.8,10.8-10.8,10.8H72c-5.9,0-10.8-4.8-10.8-10.8V49.1
			c0-5.9,4.8-10.8,10.8-10.8h178.5c5.9,0,10.8,4.8,10.8,10.8V137.3z"/>
		<path fill="#FFFFFF" d="M167.7,161.3c0,3.6-2.9,6.5-6.5,6.5l0,0c-3.6,0-6.5-2.9-6.5-6.5l0,0c0-3.6,2.9-6.5,6.5-6.5l0,0
			C164.8,154.9,167.7,157.7,167.7,161.3L167.7,161.3z"/>
		<path fill="#F47D20" d="M138.3,180.7H185c0,0-0.8,16.3,11.4,20.9h-70.2C126.1,201.5,140.2,194.7,138.3,180.7z"/>
	</g>
	<g>
		<g id="XMLID_1_">
			<g>
				<path fill="#F47D20" d="M298.1,120.5v82.4c0,4.9-3.9,8.9-8.6,8.9h-37c-4.8,0-8.6-4-8.6-8.9v-82.4c0-4.9,3.9-8.9,8.6-8.9h37
					C294.2,111.6,298.1,115.6,298.1,120.5z M291.6,195.5v-65.1h-41.3v65.1H291.6z"/>
				<rect x="250.3" y="130.5" fill="#FFFFFF" width="41.3" height="65.1"/>
			</g>
			<g>
				<path fill="none" stroke="#FFFFFF" stroke-width="1.5181" stroke-miterlimit="10" d="M289.4,111.6h-37c-4.8,0-8.6,4-8.6,8.9
					v82.4c0,4.9,3.9,8.9,8.6,8.9h37c4.8,0,8.6-4,8.6-8.9v-82.4C298.1,115.6,294.2,111.6,289.4,111.6z"/>
			</g>
		</g>
		<circle fill="#FFFFFF" cx="270.9" cy="203.3" r="4.4"/>
		<rect x="265.4" y="120.3" fill="#FFFFFF" width="11" height="2.3"/>
	</g>
</g>
</svg>
