<svg width="256.2" height="190.4" xmlns="http://www.w3.org/2000/svg">

 <g>
  <title>background</title>
  <rect fill="none" id="canvas_background" height="192.4" width="258.2" y="-1" x="-1"/>
 </g>
 <g>
  <title>Layer 1</title>
  <g id="svg_1">
   <g id="svg_2">
    <path id="svg_3" d="m13.45001,0.749997c-5.9,0 -10.8,4.8 -10.8,10.8l0,131.8c0,5.9 4.8,10.8 10.8,10.8l206.6,0c5.9,0 10.8,-4.8 10.8,-10.8l0,-131.9c0,-5.9 -4.8,-10.8 -10.8,-10.8l-206.6,0l0,0.1zm203.3,114.5c0,5.9 -4.8,10.8 -10.8,10.8l-178.5,0c-5.9,0 -10.8,-4.8 -10.8,-10.8l0,-88.2c0,-5.9 4.8,-10.8 10.8,-10.8l178.5,0c5.9,0 10.8,4.8 10.8,10.8l0,88.2z" fill="#F47D20"/>
    <path id="svg_4" d="m123.15001,139.249997c0,3.6 -2.9,6.5 -6.5,6.5l0,0c-3.6,0 -6.5,-2.9 -6.5,-6.5l0,0c0,-3.6 2.9,-6.5 6.5,-6.5l0,0c3.6,0.1 6.5,2.9 6.5,6.5l0,0z" fill="#FFFFFF"/>
    <path id="svg_5" d="m93.75001,158.649997l46.7,0c0,0 -0.8,16.3 11.4,20.9l-70.2,0c-0.1,-0.1 14,-6.9 12.1,-20.9z" fill="#F47D20"/>
   </g>
   <g id="svg_6">
    <g id="XMLID_1_">
     <g id="svg_7">
      <path id="svg_8" d="m253.55001,98.449997l0,82.4c0,4.9 -3.9,8.9 -8.6,8.9l-37,0c-4.8,0 -8.6,-4 -8.6,-8.9l0,-82.4c0,-4.9 3.9,-8.9 8.6,-8.9l37,0c4.7,0 8.6,4 8.6,8.9zm-6.5,75l0,-65.1l-41.3,0l0,65.1l41.3,0z" fill="#F47D20"/>
      <rect id="svg_9" height="65.1" width="41.3" fill="#FFFFFF" y="108.449997" x="205.75001"/>
     </g>
     <g id="svg_10">
      <path id="svg_11" d="m244.85001,89.549997l-37,0c-4.8,0 -8.6,4 -8.6,8.9l0,82.4c0,4.9 3.9,8.9 8.6,8.9l37,0c4.8,0 8.6,-4 8.6,-8.9l0,-82.4c0.1,-4.9 -3.8,-8.9 -8.6,-8.9z" stroke-miterlimit="10" stroke-width="1.5181" stroke="#FFFFFF" fill="none"/>
     </g>
    </g>
    <circle id="svg_12" r="4.4" cy="181.249997" cx="226.35001" fill="#FFFFFF"/>
    <rect id="svg_13" height="2.3" width="11" fill="#FFFFFF" y="98.249997" x="220.85001"/>
   </g>
  </g>
 </g>
</svg>