<?xml version="1.0" encoding="utf-8"?>
<!-- Generator: Adobe Illustrator 15.0.0, SVG Export Plug-In . SVG Version: 6.00 Build 0)  -->
<!DOCTYPE svg PUBLIC "-//W3C//DTD SVG 1.1//EN" "http://www.w3.org/Graphics/SVG/1.1/DTD/svg11.dtd" [
	<!ENTITY ns_flows "http://ns.adobe.com/Flows/1.0/">
	<!ENTITY ns_extend "http://ns.adobe.com/Extensibility/1.0/">
	<!ENTITY ns_ai "http://ns.adobe.com/AdobeIllustrator/10.0/">
	<!ENTITY ns_graphs "http://ns.adobe.com/Graphs/1.0/">
]>
<svg version="1.1" id="Layer_1" xmlns:x="&ns_extend;" xmlns:i="&ns_ai;" xmlns:graph="&ns_graphs;"
	 xmlns="http://www.w3.org/2000/svg" xmlns:xlink="http://www.w3.org/1999/xlink" xmlns:a="http://ns.adobe.com/AdobeSVGViewerExtensions/3.0/"
	 x="0px" y="0px" width="352.2px" height="250.4px" viewBox="0 0 352.2 250.4" enable-background="new 0 0 352.2 250.4"
	 xml:space="preserve">
<g>
	<path fill="#F47D20" d="M191.4,40c-33.2,0-62.4,17.1-79.3,43h18.7c14.6-17.1,36.3-28,60.6-28c43.9,0,79.7,35.7,79.7,79.7
		c0,43.9-35.7,79.7-79.7,79.7c-24.2,0-45.9-10.9-60.6-28h-18.7c16.9,25.9,46.1,43,79.3,43c52.2,0,94.7-42.5,94.7-94.7
		S243.6,40,191.4,40z"/>
	<g>
		<rect x="167.6" y="5.6" fill="#F47D20" width="47" height="9"/>
		<rect x="186.6" y="10.1" fill="#F47D20" width="9" height="37"/>
	</g>
	<path fill="#F47D20" d="M129.5,100.6c1.9,0,3.5,2,3.5,4.6l0,0c0,2.5-1.6,4.6-3.5,4.6H55.4c-1.9,0-3.5-2-3.5-4.6l0,0
		c0-2.5,1.6-4.6,3.5-4.6H129.5z"/>
	<path fill="#F47D20" d="M129.5,157.9c1.9,0,3.5,2,3.5,4.6l0,0c0,2.5-1.6,4.6-3.5,4.6H55.4c-1.9,0-3.5-2-3.5-4.6l0,0
		c0-2.5,1.6-4.6,3.5-4.6H129.5z"/>
	<path fill="#F47D20" d="M147.7,129.2c1.9,0,3.5,2,3.5,4.6l0,0c0,2.5-1.6,4.6-3.5,4.6H73.6c-1.9,0-3.5-2-3.5-4.6l0,0
		c0-2.5,1.6-4.6,3.5-4.6H147.7z"/>
	<path fill="#F47D20" d="M228.7,103.1c-1.8-1.8-4.3-2.1-5.7-0.8l-22.7,22c-2.6-1.8-5.8-2.8-9.2-2.8c-9.1,0-16.5,7.4-16.5,16.5
		s7.4,16.5,16.5,16.5c9.1,0,16.5-7.4,16.5-16.5c0-2.4-0.5-4.6-1.4-6.7l23.3-22.5C230.8,107.4,230.5,104.9,228.7,103.1z"/>
</g>
</svg>
