<?xml version="1.0" encoding="utf-8"?>
<!-- Generator: Adobe Illustrator 15.0.0, SVG Export Plug-In . SVG Version: 6.00 Build 0)  -->
<!DOCTYPE svg PUBLIC "-//W3C//DTD SVG 1.1//EN" "http://www.w3.org/Graphics/SVG/1.1/DTD/svg11.dtd" [
	<!ENTITY ns_flows "http://ns.adobe.com/Flows/1.0/">
	<!ENTITY ns_extend "http://ns.adobe.com/Extensibility/1.0/">
	<!ENTITY ns_ai "http://ns.adobe.com/AdobeIllustrator/10.0/">
	<!ENTITY ns_graphs "http://ns.adobe.com/Graphs/1.0/">
]>

<svg version="1.1" id="Layer_1" xmlns:x="&ns_extend;" xmlns:i="&ns_ai;" xmlns:graph="&ns_graphs;"
	 xmlns="http://www.w3.org/2000/svg" xmlns:xlink="http://www.w3.org/1999/xlink" xmlns:a="http://ns.adobe.com/AdobeSVGViewerExtensions/3.0/"
	 x="0px" y="0px" width="123.9px" height="231.4px" viewBox="0 0 123.9 231.4" enable-background="new 0 0 123.9 231.4"
	 xml:space="preserve">

<g>
	<path fill="#F47D20" id="svg_3" d="M20.7,19.6C2.7,42.1,6.3,75.2,28.8,93.3c5.8,4.6,12.2,7.8,19,9.7c0.2-3.1,0.3-6.2,0.5-9.4
		c-4.9-1.6-9.5-4-13.7-7.4C16,71.2,13,43.9,27.9,25.3C42.8,6.8,70.1,3.8,88.6,18.7c18.6,14.9,21.6,42.1,6.7,60.7
		c-5.2,6.4-11.8,11-19.1,13.6c0,1.5,0.1,3.1,0.2,4.6c0.1,1.7,0.1,3.3,0.2,5c9.9-2.9,19-8.8,25.9-17.4c18.1-22.5,14.4-55.6-8.1-73.7
		C71.9-6.6,38.8-2.9,20.7,19.6z"/>
	<path fill="#F47D20" d="M62.5,57.4c-2.9,0.2-5.4,1.4-6.9,3.2l-0.1,0.1c-1.8,2.3-2.2,10.9-2.4,15.9c0,0.1,0,0.3,0,0.4
		c-0.1,1.7-0.1,3.1-0.2,4.2c0,0.5-0.1,1-0.1,1.5c-0.4,4.1-0.6,8-0.9,11.8c-0.2,3.1-0.3,6.2-0.5,9.3c0,0.1,0,0.1,0,0.2
		c-0.4,6.8-0.7,13.8-1.4,21.6c-0.1,0.6-0.1,1.2-0.2,1.9c-0.6,7-1.3,15.8-5.5,20.3c-2.8,3-5.7,4.2-8.6,3.6
		c-6.4-1.2-10.3-11-12.4-16.3c-0.3-0.8-0.6-1.5-0.8-2c-0.7-1.4-1.2-3-1.8-4.5c-1.7-4.3-3.4-8.8-6.7-11c-2.3-1.5-9.4-1.2-12.5,2.8
		c-0.8,1-1.3,2.2-1.5,3.6c-0.1,4.5,2.6,10.4,5.3,16.1c1.1,2.3,2.2,4.6,3.1,6.8c6.8,16.7,12.5,30.7,18.9,46.2
		c3.5,8.6,15.2,30.7,21.9,34.6c8.1,4.8,33.1,4,40.5,3.2c5.9-0.6,6.8-4.6,12.8-12.1c5.3-6.6,13.5-29.2,14.5-32.5
		c2.5-8.1,5-16.5,6.1-25.8c0.6-5.5,2.5-22.1-2.7-33c-5.6-11.9-18.8-12.7-26.6-13.2l-0.5,0c-7.3-0.4-8.9-0.3-11.3-0.2
		c-1.5,0.1-3.4,0.2-7.2,0.3l-1.9,0l0.1-1.9c0.1-3,0.1-6,0-8.9c-0.1-1.9-0.1-3.8-0.2-5.8c0-1.2-0.1-2.4-0.1-3.6
		c-0.1-2.8-0.2-5.6-0.2-8.7c0-1.1,0.1-2.2,0.2-3.4c0.1-1.1,0.2-2.3,0.3-3.5c0.1-0.9,0.2-1.9,0.3-2.8c0.5-6,0.7-12.7-2.6-15.8
		C68.6,58.1,65.7,57.2,62.5,57.4z"/>
	<path fill="#F47D20" d="M81.4,27.7C67.8,16.8,47.9,19,37,32.6C26.1,46.2,28.3,66.1,41.9,77c2.3,1.8,4.8,3.3,7.4,4.4
		c0-0.2,0-0.3,0-0.5c0.1-1.1,0.2-2.7,0.2-4.4c0-0.3,0-0.7,0-1c-1.5-0.8-2.9-1.7-4.2-2.8c-11.2-9-13-25.4-4-36.6
		c9-11.2,25.4-13,36.6-4c11.2,9,13,25.4,4,36.6c-1.5,1.8-3.1,3.4-4.9,4.7c-0.6,0.5-1.3,0.9-1.9,1.3c-0.2,2.3-0.4,4.5-0.6,6.5
		c0.7-0.3,1.3-0.6,1.9-0.9c3.7-2,7-4.7,9.8-8.1C97.1,58.5,95,38.6,81.4,27.7z"/>
</g>
</svg>
