<?xml version="1.0" encoding="utf-8"?>
<!-- Generator: Adobe Illustrator 15.0.0, SVG Export Plug-In . SVG Version: 6.00 Build 0)  -->
<!DOCTYPE svg PUBLIC "-//W3C//DTD SVG 1.1//EN" "http://www.w3.org/Graphics/SVG/1.1/DTD/svg11.dtd" [
	<!ENTITY ns_flows "http://ns.adobe.com/Flows/1.0/">
	<!ENTITY ns_extend "http://ns.adobe.com/Extensibility/1.0/">
	<!ENTITY ns_ai "http://ns.adobe.com/AdobeIllustrator/10.0/">
	<!ENTITY ns_graphs "http://ns.adobe.com/Graphs/1.0/">
]>
<svg version="1.1" id="Layer_1" xmlns:x="&ns_extend;" xmlns:i="&ns_ai;" xmlns:graph="&ns_graphs;"
	 xmlns="http://www.w3.org/2000/svg" xmlns:xlink="http://www.w3.org/1999/xlink" xmlns:a="http://ns.adobe.com/AdobeSVGViewerExtensions/3.0/"
	 x="0px" y="0px" width="214.2px" height="223.6px" viewBox="0 0 214.2 223.6" enable-background="new 0 0 214.2 223.6"
	 xml:space="preserve">
<g>
	<path fill="#F47D20" d="M119.5,34.3c-33.2,0-62.4,17.1-79.3,43H59c14.6-17.1,36.3-28,60.6-28c43.9,0,79.7,35.7,79.7,79.7
		c0,43.9-35.7,79.7-79.7,79.7c-24.2,0-45.9-10.9-60.6-28H40.2c16.9,25.9,46.1,43,79.3,43c52.2,0,94.7-42.5,94.7-94.7
		S171.7,34.3,119.5,34.3z"/>
	<g>
		<rect x="95.7" y="0" fill="#F47D20" width="47" height="9"/>
		<rect x="114.7" y="4.5" fill="#F47D20" width="9" height="37"/>
	</g>
	<circle fill="#F47D20" cx="119.2" cy="132.3" r="16.5"/>
	<path fill="#F47D20" d="M57.5,94.9c1.9,0,3.5,2,3.5,4.6l0,0c0,2.5-1.6,4.6-3.5,4.6H3.5c-1.9,0-3.5-2-3.5-4.6l0,0
		c0-2.5,1.6-4.6,3.5-4.6H57.5z"/>
	<path fill="#F47D20" d="M57.5,152.3c1.9,0,3.5,2,3.5,4.6l0,0c0,2.5-1.6,4.6-3.5,4.6H3.5c-1.9,0-3.5-2-3.5-4.6l0,0
		c0-2.5,1.6-4.6,3.5-4.6H57.5z"/>
	<path fill="#F47D20" d="M75.8,123.6c1.9,0,3.5,2,3.5,4.6l0,0c0,2.5-1.6,4.6-3.5,4.6H21.7c-1.9,0-3.5-2-3.5-4.6l0,0
		c0-2.5,1.6-4.6,3.5-4.6H75.8z"/>
	<path fill="#F47D20" d="M151.1,96.7c1.4-1.4,3.9-1,5.7,0.8l0,0c1.8,1.8,2.1,4.3,0.8,5.7l-37.9,36.6c-1.4,1.4-3.9,1-5.7-0.8l0,0
		c-1.8-1.8-2.1-4.3-0.8-5.7L151.1,96.7z"/>
</g>
</svg>
