<svg width="239.2" height="230.4" xmlns="http://www.w3.org/2000/svg">

 <g>
  <title>background</title>
  <rect fill="none" id="canvas_background" height="232.4" width="241.2" y="-1" x="-1"/>
 </g>
 <g>
  <title>Layer 1</title>
  <g id="svg_1">
   <path id="svg_2" d="m142.000002,37.699999c-33.2,0 -62.4,17.1 -79.3,43l18.7,0c14.6,-17.1 36.3,-28 60.6,-28c43.9,0 79.7,35.7 79.7,79.7c0,43.9 -35.7,79.7 -79.7,79.7c-24.2,0 -45.9,-10.9 -60.6,-28l-18.7,0c16.9,25.9 46.1,43 79.3,43c52.2,0 94.7,-42.5 94.7,-94.7s-42.5,-94.7 -94.7,-94.7z" fill="#F47D20"/>
   <g id="svg_3">
    <rect id="svg_4" height="9" width="47" fill="#F47D20" y="3.299999" x="118.200002"/>
    <rect id="svg_5" height="37" width="9" fill="#F47D20" y="7.799999" x="137.200002"/>
   </g>
   <path id="svg_6" d="m80.100002,98.299999c1.9,0 3.5,2 3.5,4.6l0,0c0,2.5 -1.6,4.6 -3.5,4.6l-74.1,0c-1.9,0 -3.5,-2 -3.5,-4.6l0,0c0,-2.5 1.6,-4.6 3.5,-4.6l74.1,0z" fill="#F47D20"/>
   <path id="svg_7" d="m80.100002,155.599999c1.9,0 3.5,2 3.5,4.6l0,0c0,2.5 -1.6,4.6 -3.5,4.6l-74.1,0c-1.9,0 -3.5,-2 -3.5,-4.6l0,0c0,-2.5 1.6,-4.6 3.5,-4.6l74.1,0z" fill="#F47D20"/>
   <path id="svg_8" d="m98.300002,126.899999c1.9,0 3.5,2 3.5,4.6l0,0c0,2.5 -1.6,4.6 -3.5,4.6l-74.1,0c-1.9,0 -3.5,-2 -3.5,-4.6l0,0c0,-2.5 1.6,-4.6 3.5,-4.6l74.1,0z" fill="#F47D20"/>
   <path id="svg_9" d="m179.300002,100.799999c-1.8,-1.8 -4.3,-2.1 -5.7,-0.8l-22.7,22c-2.6,-1.8 -5.8,-2.8 -9.2,-2.8c-9.1,0 -16.5,7.4 -16.5,16.5s7.4,16.5 16.5,16.5c9.1,0 16.5,-7.4 16.5,-16.5c0,-2.4 -0.5,-4.6 -1.4,-6.7l23.3,-22.5c1.3,-1.4 1,-3.9 -0.8,-5.7z" fill="#F47D20"/>
  </g>
 </g>
</svg>