<?xml version="1.0" encoding="utf-8"?>
<!-- Generator: Adobe Illustrator 15.0.0, SVG Export Plug-In . SVG Version: 6.00 Build 0)  -->
<!DOCTYPE svg PUBLIC "-//W3C//DTD SVG 1.1//EN" "http://www.w3.org/Graphics/SVG/1.1/DTD/svg11.dtd" [
	<!ENTITY ns_flows "http://ns.adobe.com/Flows/1.0/">
	<!ENTITY ns_extend "http://ns.adobe.com/Extensibility/1.0/">
	<!ENTITY ns_ai "http://ns.adobe.com/AdobeIllustrator/10.0/">
	<!ENTITY ns_graphs "http://ns.adobe.com/Graphs/1.0/">
]>
<svg version="1.1" id="Layer_1" xmlns:x="&ns_extend;" xmlns:i="&ns_ai;" xmlns:graph="&ns_graphs;"
	 xmlns="http://www.w3.org/2000/svg" xmlns:xlink="http://www.w3.org/1999/xlink" xmlns:a="http://ns.adobe.com/AdobeSVGViewerExtensions/3.0/"
	 x="0px" y="0px" width="868.7px" height="1561.2px" viewBox="0 0 868.7 1561.2" enable-background="new 0 0 868.7 1561.2"
	 xml:space="preserve">
<g opacity="0.3">
	<line fill="none" stroke="#FFFFFF" stroke-width="0.5338" stroke-miterlimit="10" x1="0.1" y1="434.8" x2="868.6" y2="0.2"/>
	<line fill="none" stroke="#FFFFFF" stroke-width="0.5338" stroke-miterlimit="10" x1="0.1" y1="450.4" x2="868.6" y2="15.9"/>
	<line fill="none" stroke="#FFFFFF" stroke-width="0.5338" stroke-miterlimit="10" x1="0.1" y1="466.1" x2="868.6" y2="31.5"/>
	<line fill="none" stroke="#FFFFFF" stroke-width="0.5338" stroke-miterlimit="10" x1="0.1" y1="481.7" x2="868.6" y2="47.2"/>
	<line fill="none" stroke="#FFFFFF" stroke-width="0.5338" stroke-miterlimit="10" x1="0.1" y1="497.3" x2="868.6" y2="62.8"/>
	<line fill="none" stroke="#FFFFFF" stroke-width="0.5338" stroke-miterlimit="10" x1="0.1" y1="513" x2="868.6" y2="78.4"/>
	<line fill="none" stroke="#FFFFFF" stroke-width="0.5338" stroke-miterlimit="10" x1="0.1" y1="528.6" x2="868.6" y2="94.1"/>
	<line fill="none" stroke="#FFFFFF" stroke-width="0.5338" stroke-miterlimit="10" x1="0.1" y1="544.3" x2="868.6" y2="109.7"/>
	<line fill="none" stroke="#FFFFFF" stroke-width="0.5338" stroke-miterlimit="10" x1="0.1" y1="559.9" x2="868.6" y2="125.4"/>
	<line fill="none" stroke="#FFFFFF" stroke-width="0.5338" stroke-miterlimit="10" x1="0.1" y1="575.6" x2="868.6" y2="141"/>
	<line fill="none" stroke="#FFFFFF" stroke-width="0.5338" stroke-miterlimit="10" x1="0.1" y1="591.2" x2="868.6" y2="156.7"/>
	<line fill="none" stroke="#FFFFFF" stroke-width="0.5338" stroke-miterlimit="10" x1="0.1" y1="606.8" x2="868.6" y2="172.3"/>
	<line fill="none" stroke="#FFFFFF" stroke-width="0.5338" stroke-miterlimit="10" x1="0.1" y1="622.5" x2="868.6" y2="187.9"/>
	<line fill="none" stroke="#FFFFFF" stroke-width="0.5338" stroke-miterlimit="10" x1="0.1" y1="638.1" x2="868.6" y2="203.6"/>
	<line fill="none" stroke="#FFFFFF" stroke-width="0.5338" stroke-miterlimit="10" x1="0.1" y1="653.8" x2="868.6" y2="219.2"/>
	<line fill="none" stroke="#FFFFFF" stroke-width="0.5338" stroke-miterlimit="10" x1="0.1" y1="669.4" x2="868.6" y2="234.9"/>
	<line fill="none" stroke="#FFFFFF" stroke-width="0.5338" stroke-miterlimit="10" x1="0.1" y1="685" x2="868.6" y2="250.5"/>
	<line fill="none" stroke="#FFFFFF" stroke-width="0.5338" stroke-miterlimit="10" x1="0.1" y1="700.7" x2="868.6" y2="266.1"/>
	<line fill="none" stroke="#FFFFFF" stroke-width="0.5338" stroke-miterlimit="10" x1="0.1" y1="716.3" x2="868.6" y2="281.8"/>
	<line fill="none" stroke="#FFFFFF" stroke-width="0.5338" stroke-miterlimit="10" x1="0.1" y1="732" x2="868.6" y2="297.4"/>
	<line fill="none" stroke="#FFFFFF" stroke-width="0.5338" stroke-miterlimit="10" x1="0.1" y1="747.6" x2="868.6" y2="313.1"/>
	<line fill="none" stroke="#FFFFFF" stroke-width="0.5338" stroke-miterlimit="10" x1="0.1" y1="763.2" x2="868.6" y2="328.7"/>
	<line fill="none" stroke="#FFFFFF" stroke-width="0.5338" stroke-miterlimit="10" x1="0.1" y1="778.9" x2="868.6" y2="344.3"/>
	<line fill="none" stroke="#FFFFFF" stroke-width="0.5338" stroke-miterlimit="10" x1="0.1" y1="794.5" x2="868.6" y2="360"/>
	<line fill="none" stroke="#FFFFFF" stroke-width="0.5338" stroke-miterlimit="10" x1="0.1" y1="810.2" x2="868.6" y2="375.6"/>
	<line fill="none" stroke="#FFFFFF" stroke-width="0.5338" stroke-miterlimit="10" x1="0.1" y1="825.8" x2="868.6" y2="391.3"/>
	<line fill="none" stroke="#FFFFFF" stroke-width="0.5338" stroke-miterlimit="10" x1="0.1" y1="841.5" x2="868.6" y2="406.9"/>
	<line fill="none" stroke="#FFFFFF" stroke-width="0.5338" stroke-miterlimit="10" x1="0.1" y1="857.1" x2="868.6" y2="422.6"/>
	<line fill="none" stroke="#FFFFFF" stroke-width="0.5338" stroke-miterlimit="10" x1="0.1" y1="872.7" x2="868.6" y2="438.2"/>
	<line fill="none" stroke="#FFFFFF" stroke-width="0.5338" stroke-miterlimit="10" x1="0.1" y1="888.4" x2="868.6" y2="453.8"/>
	<line fill="none" stroke="#FFFFFF" stroke-width="0.5338" stroke-miterlimit="10" x1="0.1" y1="904" x2="868.6" y2="469.5"/>
	<line fill="none" stroke="#FFFFFF" stroke-width="0.5338" stroke-miterlimit="10" x1="0.1" y1="919.7" x2="868.6" y2="485.1"/>
	<line fill="none" stroke="#FFFFFF" stroke-width="0.5338" stroke-miterlimit="10" x1="0.1" y1="935.3" x2="868.6" y2="500.8"/>
	<line fill="none" stroke="#FFFFFF" stroke-width="0.5338" stroke-miterlimit="10" x1="0.1" y1="950.9" x2="868.6" y2="516.4"/>
	<line fill="none" stroke="#FFFFFF" stroke-width="0.5338" stroke-miterlimit="10" x1="0.1" y1="966.6" x2="868.6" y2="532"/>
	<line fill="none" stroke="#FFFFFF" stroke-width="0.5338" stroke-miterlimit="10" x1="0.1" y1="982.2" x2="868.6" y2="547.7"/>
	<line fill="none" stroke="#FFFFFF" stroke-width="0.5338" stroke-miterlimit="10" x1="0.1" y1="997.9" x2="868.6" y2="563.3"/>
	<line fill="none" stroke="#FFFFFF" stroke-width="0.5338" stroke-miterlimit="10" x1="0.1" y1="1013.5" x2="868.6" y2="579"/>
	<line fill="none" stroke="#FFFFFF" stroke-width="0.5338" stroke-miterlimit="10" x1="0.1" y1="1029.2" x2="868.6" y2="594.6"/>
	<line fill="none" stroke="#FFFFFF" stroke-width="0.5338" stroke-miterlimit="10" x1="0.1" y1="1044.8" x2="868.6" y2="610.2"/>
	<line fill="none" stroke="#FFFFFF" stroke-width="0.5338" stroke-miterlimit="10" x1="0.1" y1="1060.4" x2="868.6" y2="625.9"/>
	<line fill="none" stroke="#FFFFFF" stroke-width="0.5338" stroke-miterlimit="10" x1="0.1" y1="1076.1" x2="868.6" y2="641.5"/>
	<line fill="none" stroke="#FFFFFF" stroke-width="0.5338" stroke-miterlimit="10" x1="0.1" y1="1091.7" x2="868.6" y2="657.2"/>
	<line fill="none" stroke="#FFFFFF" stroke-width="0.5338" stroke-miterlimit="10" x1="0.1" y1="1107.4" x2="868.6" y2="672.8"/>
	<line fill="none" stroke="#FFFFFF" stroke-width="0.5338" stroke-miterlimit="10" x1="0.1" y1="1123" x2="868.6" y2="688.5"/>
	<line fill="none" stroke="#FFFFFF" stroke-width="0.5338" stroke-miterlimit="10" x1="0.1" y1="1138.6" x2="868.6" y2="704.1"/>
	<line fill="none" stroke="#FFFFFF" stroke-width="0.5338" stroke-miterlimit="10" x1="0.1" y1="1154.3" x2="868.6" y2="719.7"/>
	<line fill="none" stroke="#FFFFFF" stroke-width="0.5338" stroke-miterlimit="10" x1="0.1" y1="1169.9" x2="868.6" y2="735.4"/>
	<line fill="none" stroke="#FFFFFF" stroke-width="0.5338" stroke-miterlimit="10" x1="0.1" y1="1185.6" x2="868.6" y2="751"/>
	<line fill="none" stroke="#FFFFFF" stroke-width="0.5338" stroke-miterlimit="10" x1="0.1" y1="1201.2" x2="868.6" y2="766.7"/>
	<line fill="none" stroke="#FFFFFF" stroke-width="0.5338" stroke-miterlimit="10" x1="0.1" y1="1216.9" x2="868.6" y2="782.3"/>
	<line fill="none" stroke="#FFFFFF" stroke-width="0.5338" stroke-miterlimit="10" x1="0.1" y1="1232.5" x2="868.6" y2="797.9"/>
	<line fill="none" stroke="#FFFFFF" stroke-width="0.5338" stroke-miterlimit="10" x1="0.1" y1="1248.1" x2="868.6" y2="813.6"/>
	<line fill="none" stroke="#FFFFFF" stroke-width="0.5338" stroke-miterlimit="10" x1="0.1" y1="1263.8" x2="868.6" y2="829.2"/>
	<line fill="none" stroke="#FFFFFF" stroke-width="0.5338" stroke-miterlimit="10" x1="0.1" y1="1279.4" x2="868.6" y2="844.9"/>
	<line fill="none" stroke="#FFFFFF" stroke-width="0.5338" stroke-miterlimit="10" x1="0.1" y1="1295.1" x2="868.6" y2="860.5"/>
	<line fill="none" stroke="#FFFFFF" stroke-width="0.5338" stroke-miterlimit="10" x1="0.1" y1="1310.7" x2="868.6" y2="876.1"/>
	<line fill="none" stroke="#FFFFFF" stroke-width="0.5338" stroke-miterlimit="10" x1="0.1" y1="1326.3" x2="868.6" y2="891.8"/>
	<line fill="none" stroke="#FFFFFF" stroke-width="0.5338" stroke-miterlimit="10" x1="0.1" y1="1342" x2="868.6" y2="907.4"/>
	<line fill="none" stroke="#FFFFFF" stroke-width="0.5338" stroke-miterlimit="10" x1="0.1" y1="1357.6" x2="868.6" y2="923.1"/>
	<line fill="none" stroke="#FFFFFF" stroke-width="0.5338" stroke-miterlimit="10" x1="0.1" y1="1373.3" x2="868.6" y2="938.7"/>
	<line fill="none" stroke="#FFFFFF" stroke-width="0.5338" stroke-miterlimit="10" x1="0.1" y1="1388.9" x2="868.6" y2="954.4"/>
	<line fill="none" stroke="#FFFFFF" stroke-width="0.5338" stroke-miterlimit="10" x1="0.1" y1="1404.5" x2="868.6" y2="970"/>
	<line fill="none" stroke="#FFFFFF" stroke-width="0.5338" stroke-miterlimit="10" x1="0.1" y1="1420.2" x2="868.6" y2="985.6"/>
	<line fill="none" stroke="#FFFFFF" stroke-width="0.5338" stroke-miterlimit="10" x1="0.1" y1="1435.8" x2="868.6" y2="1001.3"/>
	<line fill="none" stroke="#FFFFFF" stroke-width="0.5338" stroke-miterlimit="10" x1="0.1" y1="1451.5" x2="868.6" y2="1016.9"/>
	<line fill="none" stroke="#FFFFFF" stroke-width="0.5338" stroke-miterlimit="10" x1="0.1" y1="1467.1" x2="868.6" y2="1032.6"/>
	<line fill="none" stroke="#FFFFFF" stroke-width="0.5338" stroke-miterlimit="10" x1="0.1" y1="1482.8" x2="868.6" y2="1048.2"/>
	<line fill="none" stroke="#FFFFFF" stroke-width="0.5338" stroke-miterlimit="10" x1="0.1" y1="1498.4" x2="868.6" y2="1063.8"/>
	<line fill="none" stroke="#FFFFFF" stroke-width="0.5338" stroke-miterlimit="10" x1="0.1" y1="1514" x2="868.6" y2="1079.5"/>
	<line fill="none" stroke="#FFFFFF" stroke-width="0.5338" stroke-miterlimit="10" x1="0.1" y1="1529.7" x2="868.6" y2="1095.1"/>
	<line fill="none" stroke="#FFFFFF" stroke-width="0.5338" stroke-miterlimit="10" x1="0.1" y1="1545.3" x2="868.6" y2="1110.8"/>
	<line fill="none" stroke="#FFFFFF" stroke-width="0.5338" stroke-miterlimit="10" x1="0.1" y1="1561" x2="868.6" y2="1126.4"/>
</g>
</svg>
