<svg width="315.1" height="222.8" xmlns="http://www.w3.org/2000/svg">

 <g>
  <title>background</title>
  <rect fill="none" id="canvas_background" height="402" width="582" y="-1" x="-1"/>
 </g>
 <g>
  <title>Layer 1</title>
  <g stroke="null" id="svg_1">
   <g stroke="null" id="svg_2" opacity="0.63">
    <path stroke="null" id="svg_3" d="m165.293259,116.441716l0,37.803192l-6.857456,0l0,-37.803192l-7.857502,0l0,-4.992874l22.715323,0l0,4.992874l-8.000365,0z" fill="#FFFFFF"/>
    <path stroke="null" id="svg_4" d="m188.7229,154.244909l0,-42.796067l17.000776,0l0,5.349508l-10.14332,0l0,12.601064l9.000411,0l0,5.349508l-8.857547,0l0,14.146478l10.000457,0l0,5.349508l-17.000776,0z" fill="#FFFFFF"/>
    <path stroke="null" id="svg_5" d="m228.439,116.679472l0,12.482186l9.857593,0l0,5.23063l-9.714729,0l0,19.85262l-6.857456,0l0,-42.796067l17.715095,0l0,5.23063l-11.000502,0z" fill="#FFFFFF"/>
    <path stroke="null" id="svg_6" d="m268.869417,154.244909l-1.285773,-7.845946l-7.714638,0l-1.142909,7.845946l-6.571729,0l7.286047,-42.796067l8.286093,0l8.000365,42.796067l-6.857456,0zm-5.428819,-35.306755l-2.857273,22.230179l6.143138,0l-3.285864,-22.230179z" fill="#FFFFFF"/>
    <path stroke="null" id="svg_7" d="m304.585333,154.244909l-8.286093,-31.383782l0.571455,31.383782l-6.286001,0l0,-42.796067l7.286047,0l8.143229,29.243979l-0.285727,-29.243979l6.428865,0l0,42.796067l-7.571774,0z" fill="#FFFFFF"/>
   </g>
   <g stroke="null" id="svg_8" opacity="0.63">
    <path stroke="null" id="svg_9" d="m132.720343,213.446135c-1.857228,5.587264 -8.428956,5.943898 -10.429048,5.943898c-1.857228,0 -7.571774,-0.356634 -9.571866,-4.992874c-0.571455,-1.18878 -0.857182,-2.377559 -0.857182,-4.992874l0,-33.404708l6.571729,0l0,33.166952c0,2.377559 -0.142864,5.706142 4.143046,5.706142c0.428591,0 1.714364,0 2.571546,-0.713268c1.428637,-1.069902 1.5715,-2.496437 1.5715,-5.349508l0,-32.810318l6.714592,0l0,32.453684c0,0.237756 0,2.971949 -0.714318,4.992874z" fill="#FFFFFF"/>
    <path stroke="null" id="svg_10" d="m163.436032,180.873573l0,37.803192l-7.00032,0l0,-37.803192l-7.857502,0l0,-4.992874l22.858187,0l0,4.992874l-8.000365,0z" fill="#FFFFFF"/>
    <path stroke="null" id="svg_11" d="m201.152039,218.676765l-1.285773,-7.845946l-7.714638,0l-1.142909,7.845946l-6.714592,0l7.286047,-42.796067l8.286093,0l8.000365,42.796067l-6.714592,0zm-5.428819,-35.425633l-2.857273,22.230179l6.143138,0l-3.285864,-22.230179z" fill="#FFFFFF"/>
    <path stroke="null" id="svg_12" d="m237.010819,214.991548c-2.285819,4.160729 -8.286093,4.041851 -9.429002,4.041851c-1.714364,0 -3.714455,-0.118878 -7.286047,-0.59439l0.142864,-5.111752c2.71441,0.713268 5.428819,0.832146 6.286001,0.832146c2.000091,0 3.857319,-0.356634 4.428774,-2.139803c0.285727,-0.832146 0.428591,-2.971949 0.428591,-5.23063l0,-30.90827l6.714592,0l0,29.719491c0,4.755119 0,7.251556 -1.285773,9.391359z" fill="#FFFFFF"/>
    <path stroke="null" id="svg_13" d="m270.012326,218.676765l-1.285773,-7.845946l-7.714638,0l-1.142909,7.845946l-6.571729,0l7.286047,-42.796067l8.286093,0l8.000365,42.796067l-6.857456,0zm-5.428819,-35.425633l-2.857273,22.230179l6.143138,0l-3.285864,-22.230179z" fill="#FFFFFF"/>
    <path stroke="null" id="svg_14" d="m306.442561,218.676765l-5.714547,-19.85262l-2.285819,0l0,19.85262l-6.714592,0l0,-42.796067l12.429139,0c2.571546,0 4.571637,0.59439 5.714547,1.545414c1.5715,1.307658 2.000091,2.971949 2.000091,6.776044l0,6.300532c0,5.23063 -1.142909,6.894922 -4.857365,7.727068l6.286001,20.565888l-6.857456,0l0,-0.118878zm-1.285773,-33.761342c0,-1.18878 -0.142864,-2.020925 -0.142864,-2.496437c-0.142864,-0.356634 -0.285727,-0.951024 -0.571455,-1.069902c-0.428591,-0.237756 -1.000046,-0.356634 -2.142955,-0.356634l-3.714455,0l0,12.719942l3.000137,0c3.000137,0 3.714455,-0.713268 3.714455,-4.517363l0,-4.279607l-0.142864,0z" fill="#FFFFFF"/>
   </g>
   <path stroke="null" id="svg_15" d="m115.719567,79.589548c-2.71441,-2.615315 -5.85741,-5.111752 -8.857547,-7.370434l-12.714866,-10.223505c-9.571866,-7.727068 -14.714958,-12.83882 -14.714958,-24.48886c0,-7.370434 2.000091,-14.265356 13.000594,-14.265356c14.42923,-0.237756 14.714958,9.629115 15.000685,26.509786l25.286869,0.237756c0,-17.712817 -0.714318,-25.915396 -5.85741,-33.88022c-8.857547,-13.908722 -27.429824,-13.908722 -32.572916,-13.908722c-14.714958,0 -22.858187,3.922973 -27.715551,7.370434c-13.286321,9.629115 -13.000594,27.104176 -13.000594,29.957247c0,13.670966 3.143001,22.467935 14.42923,32.69144c3.000137,3.090827 6.428865,5.943898 9.857593,8.796969l14.714958,12.24443c6.143138,5.111752 12.286275,11.412284 14.000639,18.782718c0.714318,2.258681 1.000046,3.685217 1.000046,7.964824c0,9.153603 -1.428637,13.908722 -5.85741,16.761793c-1.000046,0.832146 -4.143046,2.615315 -8.857547,2.615315c-14.000639,0 -15.429276,-9.510237 -15.57214,-13.908722l0,-16.999549c0,-5.943898 0,-10.936773 -2.571546,-16.524037c-1.857228,-4.279607 -6.143138,-11.531162 -18.572277,-15.216379c-7.428911,-2.377559 -15.143549,-2.377559 -17.286504,-2.377559c-6.143138,0 -29.858506,0.832146 -37.001689,19.25823c-1.5715,3.804095 -1.857228,6.181654 -1.857228,13.43321l0,84.759988c0,8.559213 0.571455,11.531162 2.857273,15.810769c7.714638,15.454135 30.858552,14.978623 35.001598,14.978623c7.428911,0 12.85773,-0.832146 15.715003,-1.545414c15.429276,-4.041851 20.572368,-14.146478 22.143868,-19.020474c1.5715,-5.349508 1.285773,-10.699017 1.285773,-12.601064l0,-17.475061l-25.572596,0l0,17.831695c0,5.111752 0,11.768918 -6.714592,13.908722c-2.857273,1.069902 -5.571683,1.069902 -6.714592,1.069902c-0.571455,0 -3.571592,-0.237756 -6.143138,-1.069902c-5.571683,-2.139803 -6.428865,-5.82502 -6.428865,-10.104627l0,-86.899791c0,-4.517363 0,-9.866871 5.143092,-12.601064c2.571546,-1.307658 4.857365,-1.664291 8.000365,-1.664291c2.285819,0 9.571866,-0.475512 12.143412,5.943898c0.285727,0.59439 0.285727,2.377559 0.285727,2.377559l0,12.83882c0,3.922973 0.428591,14.740867 0.428591,14.740867l0.428591,0c1.000046,9.391359 4.143046,18.66384 14.000639,24.845494c10.286184,6.538288 22.286732,6.776044 26.286915,6.776044c13.714912,0 21.286686,-4.041851 26.001187,-7.132678c16.715049,-11.055651 16.429322,-29.600613 16.429322,-34.117975c-0.142864,-16.048525 -5.85741,-27.341932 -18.858004,-39.11085z" fill="#FFFFFF"/>
  </g>
 </g>
</svg>