<?xml version="1.0" encoding="utf-8"?>
<!-- Generator: Adobe Illustrator 15.0.0, SVG Export Plug-In . SVG Version: 6.00 Build 0)  -->
<!DOCTYPE svg PUBLIC "-//W3C//DTD SVG 1.1//EN" "http://www.w3.org/Graphics/SVG/1.1/DTD/svg11.dtd" [
	<!ENTITY ns_flows "http://ns.adobe.com/Flows/1.0/">
	<!ENTITY ns_extend "http://ns.adobe.com/Extensibility/1.0/">
	<!ENTITY ns_ai "http://ns.adobe.com/AdobeIllustrator/10.0/">
	<!ENTITY ns_graphs "http://ns.adobe.com/Graphs/1.0/">
]>
<svg version="1.1" id="Layer_1" xmlns:x="&ns_extend;" xmlns:i="&ns_ai;" xmlns:graph="&ns_graphs;"
	 xmlns="http://www.w3.org/2000/svg" xmlns:xlink="http://www.w3.org/1999/xlink" xmlns:a="http://ns.adobe.com/AdobeSVGViewerExtensions/3.0/"
	 x="0px" y="0px" width="232.8px" height="87.9px" viewBox="0 0 232.8 87.9" enable-background="new 0 0 232.8 87.9"
	 xml:space="preserve">
<g>
	<g>
		<path fill="#F47D20" d="M33.7,62.2V44.9h-2.5l0-2.2c0.5-0.1,1.5-0.1,2.4-1.2c0.1-0.2,0.5-0.6,0.7-1.1c0.2-0.4,0.2-0.7,0.3-1h2
			v22.9H33.7z"/>
	</g>
	<g>
		<path fill="#F47D20" d="M53.7,59.6v2.7h-1.4v-2.7h-3.2v-1.2l2.4-7.7h2.1v7.6h0.8v1.2H53.7z M52.3,52.3l-1.9,6.1h1.9V52.3z"/>
	</g>
	<line fill="none" stroke="#F47D20" stroke-width="0.8765" stroke-miterlimit="10" x1="49.5" y1="38.2" x2="41.9" y2="62.2"/>
</g>
<g>
	<g>
		<path fill="#F47D20" d="M81.9,62.2c0-0.8-0.1-2.5,0.5-4.6c0.4-1.5,1.2-3.1,3.1-5.8c1.3-1.8,1.8-2.3,2.2-3.5
			c0.3-0.7,0.4-1.2,0.4-2.6v-2.3c0-0.5,0.2-2.3-1.7-2.3c-0.5,0-0.8,0.1-1,0.2c-0.7,0.4-0.7,1-0.7,1.7v3.7h-2.8v-3.5
			c0-0.2,0-1,0.1-1.7c0.7-2.8,3.8-2.7,4.4-2.7c1.2,0,2.5,0.1,3.5,1c1,0.9,1,2.1,1.1,2.5c0.1,0.8,0.1,1.6,0.1,2.3
			c0,2.2-0.1,3.1-0.5,4.1c-0.4,0.9-1.2,2.2-2.5,4.2c-0.4,0.5-2.3,3-2.9,5.5c-0.1,0.3-0.1,0.6-0.2,0.9H91v2.6H81.9z"/>
	</g>
	<g>
		<path fill="#F47D20" d="M105.2,59.6v2.7h-1.4v-2.7h-3.2v-1.2l2.4-7.7h2.1v7.6h0.8v1.2H105.2z M103.9,52.3l-1.9,6.1h1.9V52.3z"/>
	</g>
	<line fill="none" stroke="#F47D20" stroke-width="0.8765" stroke-miterlimit="10" x1="101.1" y1="38.2" x2="93.4" y2="62.2"/>
</g>
<g>
	<g>
		<path fill="#F47D20" d="M143.9,60c-0.6,1.9-2.5,2.4-4.3,2.4c-0.4,0-2.3,0.1-3.6-1.1c-0.2-0.2-0.6-0.6-0.8-1.2
			c-0.2-0.6-0.2-1-0.2-1.6v-3.2h2.8v2.9c0,0.1,0,0.7,0.1,1c0.1,0.4,0.6,0.9,1.6,0.9c0.2,0,1.1,0,1.5-0.8c0.2-0.4,0.2-0.8,0.2-1.3
			v-4.4c0-0.8-0.1-1.2-0.2-1.5c-0.5-1.1-1.8-1.2-2.8-1.2c-0.4,0-0.7,0-1.1,0v-2.7c1.7,0.1,2.6-0.2,3.2-0.8c0.4-0.5,0.5-0.9,0.5-1.5
			v-3.4c0-0.6-0.1-1.5-1.5-1.5c-1.6,0-1.6,1.1-1.6,1.7v2.1h-2.8v-2.1c0-0.2-0.1-0.9,0.2-1.5c0.4-1.2,1.6-2.3,4.3-2.3
			c0.3,0,3.3-0.1,4,2.2c0.1,0.4,0.1,0.7,0.1,1.5v3.5c0,1.4-0.2,2-0.7,2.4c-0.4,0.4-0.9,0.5-1.5,0.7c0.2,0.1,0.5,0.1,1,0.3
			c1.7,0.7,1.8,2.4,1.8,3.9v4C144.2,58.7,144.1,59.4,143.9,60z"/>
	</g>
	<g>
		<path fill="#F47D20" d="M158.7,59.6v2.7h-1.4v-2.7h-3.2v-1.2l2.4-7.7h2.1v7.6h0.8v1.2H158.7z M157.3,52.3l-1.9,6.1h1.9V52.3z"/>
	</g>
	<line fill="none" stroke="#F47D20" stroke-width="0.8765" stroke-miterlimit="10" x1="154.5" y1="38.2" x2="146.9" y2="62.2"/>
</g>
<g>
	<g>
		<path fill="#F47D20" d="M194.6,56.9v5.3h-2.7v-5.3h-6.4v-2.3l4.9-15.2h4.2v15.1h1.6v2.4H194.6z M191.8,42.4l-3.7,12.1h3.7V42.4z"
			/>
	</g>
	<g>
		<path fill="#F47D20" d="M209.9,59.6v2.7h-1.4v-2.7h-3.2v-1.2l2.4-7.7h2.1v7.6h0.8v1.2H209.9z M208.5,52.3l-1.9,6.1h1.9V52.3z"/>
	</g>
	<line fill="none" stroke="#F47D20" stroke-width="0.8765" stroke-miterlimit="10" x1="205.7" y1="38.2" x2="198.1" y2="62.2"/>
</g>
</svg>
