<?xml version="1.0" encoding="utf-8"?>
<!-- Generator: Adobe Illustrator 15.0.0, SVG Export Plug-In . SVG Version: 6.00 Build 0)  -->
<!DOCTYPE svg PUBLIC "-//W3C//DTD SVG 1.1//EN" "http://www.w3.org/Graphics/SVG/1.1/DTD/svg11.dtd" [
	<!ENTITY ns_flows "http://ns.adobe.com/Flows/1.0/">
	<!ENTITY ns_extend "http://ns.adobe.com/Extensibility/1.0/">
	<!ENTITY ns_ai "http://ns.adobe.com/AdobeIllustrator/10.0/">
	<!ENTITY ns_graphs "http://ns.adobe.com/Graphs/1.0/">
]>
<svg version="1.1" id="Layer_1" xmlns:x="&ns_extend;" xmlns:i="&ns_ai;" xmlns:graph="&ns_graphs;"
	 xmlns="http://www.w3.org/2000/svg" xmlns:xlink="http://www.w3.org/1999/xlink" xmlns:a="http://ns.adobe.com/AdobeSVGViewerExtensions/3.0/"
	 x="0px" y="0px" width="395.9px" height="402px" viewBox="0 0 395.9 402" enable-background="new 0 0 395.9 402"
	 xml:space="preserve">
<path fill="#464E59" stroke="#464E59" stroke-width="0.6669" stroke-miterlimit="10" d="M207.5,32.3c-53.8,0-97.5,43.7-97.5,97.5
	c0,52.2,41,94.8,92.5,97.4v27.3h10.1v-27.3c51.5-2.6,92.5-45.2,92.5-97.4C305,75.9,261.3,32.3,207.5,32.3z M212.5,213.5h-10.1v-27.3
	c0-2.8,2.2-5,5-5c2.8,0,5,2.3,5,5V213.5z"/>
<path fill="none" stroke="#464E59" stroke-width="2.8275" stroke-miterlimit="10" d="M314,332.6c0,6.3-5.5,11.4-12.3,11.4H113.9
	c-6.8,0-12.3-5.1-12.3-11.4v-66.8c0-6.3,5.5-11.4,12.3-11.4h187.7c6.8,0,12.3,5.1,12.3,11.4V332.6z"/>
</svg>
